<?xml version="1.0" encoding="UTF-8" standalone="no" ?>
<!DOCTYPE svg PUBLIC "-//W3C//DTD SVG 1.1//EN" "http://www.w3.org/Graphics/SVG/1.1/DTD/svg11.dtd">
<svg xmlns="http://www.w3.org/2000/svg" xmlns:xlink="http://www.w3.org/1999/xlink" version="1.1" width="1280" height="1024" viewBox="0 0 1280 1024" xml:space="preserve">
<desc>Created with Fabric.js 4.4.0</desc>
<defs>
</defs>
<g transform="matrix(1 0 0 1 640 512)" id="background-logo"  >
<rect style="stroke: none; stroke-width: 0; stroke-dasharray: none; stroke-linecap: butt; stroke-dashoffset: 0; stroke-linejoin: miter; stroke-miterlimit: 4; fill: rgb(255,255,255); fill-opacity: 0; fill-rule: nonzero; opacity: 1;"  paint-order="stroke"  x="-640" y="-512" rx="0" ry="0" width="1280" height="1024" />
</g>
<g transform="matrix(1.1770478579827095 0 0 1.1770478579827095 261.00437500000004 512)" id="logo-logo"  >
<g style=""  paint-order="stroke"   >
		<g transform="matrix(2.3982977941929553 0 0 2.3982977941929553 -0.9596704683040116 26.990218535429307)"  >
<polygon style="stroke: none; stroke-width: 1; stroke-dasharray: none; stroke-linecap: butt; stroke-dashoffset: 0; stroke-linejoin: miter; stroke-miterlimit: 4; fill: rgb(190,64,42); fill-rule: evenodd; opacity: 1;"  paint-order="stroke"  points="-50.932861299999985,8.446289050000019 50.93286130000001,8.446289050000019 50.93286130000001,-8.446289049999962 -50.932861299999985,-8.446289049999962 -50.932861299999985,8.446289050000019 " />
</g>
		<g transform="matrix(2.3982977941929553 0 0 2.3982977941929553 -0.28690584690662035 -14.123374252987588)"  >
<polygon style="stroke: none; stroke-width: 1; stroke-dasharray: none; stroke-linecap: butt; stroke-dashoffset: 0; stroke-linejoin: miter; stroke-miterlimit: 4; fill: rgb(223,97,74); fill-rule: evenodd; opacity: 1;"  paint-order="stroke"  points="-50.65234375,8.696533200000033 50.65234375,8.696533200000033 50.65234375,-8.696533199999976 -50.65234375,-8.696533199999976 -50.65234375,8.696533200000033 " />
</g>
		<g transform="matrix(2.3982977941929553 0 0 2.3982977941929553 -0.28690584690662035 -56.997631439608455)"  >
<polygon style="stroke: none; stroke-width: 1; stroke-dasharray: none; stroke-linecap: butt; stroke-dashoffset: 0; stroke-linejoin: miter; stroke-miterlimit: 4; fill: rgb(255,155,107); fill-rule: evenodd; opacity: 1;"  paint-order="stroke"  points="-50.65234375,9.180419900000004 50.65234375,9.180419900000004 50.65234375,-9.180419900000004 -50.65234375,-9.180419900000004 -50.65234375,9.180419900000004 " />
</g>
		<g transform="matrix(2.3982977941929553 0 0 2.3982977941929553 -0.3366750829019338 -101.75317061539678)"  >
<polygon style="stroke: none; stroke-width: 1; stroke-dasharray: none; stroke-linecap: butt; stroke-dashoffset: 0; stroke-linejoin: miter; stroke-miterlimit: 4; fill: rgb(254,220,123); fill-rule: evenodd; opacity: 1;"  paint-order="stroke"  points="-50.778564450000005,-10.155761749999954 50.778564449999976,-10.155761749999954 50.778564449999976,10.15576175000001 -50.778564450000005,10.15576175000001 -50.778564450000005,-10.155761749999954 " />
</g>
		<g transform="matrix(2.3982977941929553 0 0 2.3982977941929553 -0.6430963991123804 54.21995485943373)"  >
<path style="stroke: none; stroke-width: 1; stroke-dasharray: none; stroke-linecap: butt; stroke-dashoffset: 0; stroke-linejoin: miter; stroke-miterlimit: 4; fill: rgb(31,104,149); fill-rule: evenodd; opacity: 1;"  paint-order="stroke"  transform=" translate(-297.31534908311596, -444.08082691154937)" d="M 304.1992188 415.8154297 C 302.7822266 415.98144529999996 300.1796875 416.6137695 297.8999024 417.5678711 C 295.619629 418.52148439999996 293.66210939999996 419.796875 292.12500009999997 421.074707 C 290.58789069999995 422.3530273 289.47167979999995 423.63232419999997 288.4682618 425.2143554 C 287.4648438 426.79443349999997 286.5742188 428.6752929 286.065918 430.22607419999997 C 285.55761720000004 431.77685549999995 285.43115240000003 432.99951169999997 285.39990240000003 434.96044919999997 C 285.36816410000006 436.9194336 285.4316407 439.62060549999995 285.85205080000003 442.4038086 C 286.2729492 445.1889649 287.050293 448.0581055 288.65771490000003 451.0952149 C 290.2656251 454.13037119999996 292.7031251 457.33154299999995 295.4003907 459.6577149 C 298.0976563 461.9838868 301.0556641 463.4370118 303.6250001 464.6557618 C 306.19433610000004 465.8745118 308.3750001 466.8588868 311.4775392 467.4389649 C 314.5800783 468.01904299999995 318.6025392 468.1948243 322.4179689 467.7729493 C 326.2333986 467.3510743 329.841797 466.331543 332.451172 465.7768555 C 335.0615236 465.2241211 336.67285169999997 465.1381836 339.18164079999997 465.3198242 C 341.69042989999997 465.50146480000006 345.09570329999997 465.9526367 346.79882829999997 466.17724610000005 C 348.50195329999997 466.40185550000007 348.50195329999997 466.40185550000007 348.50195329999997 463.72998050000007 C 348.50195329999997 461.05810550000007 348.50195329999997 455.71435550000007 348.0527345 452.8920899000001 C 347.6044923 450.0698243000001 346.7070314 449.7709961000001 345.1113282 449.5327149000001 C 343.5156251 449.2963868000001 341.2236329 449.1225586000001 339.3125001 449.2338868000001 C 337.4013673 449.3432618000001 335.87109380000004 449.7397462000001 333.39550790000004 450.5893556000001 C 330.91992200000004 451.4409181000001 327.49804700000004 452.7456056000001 324.75195320000006 453.63037120000007 C 322.00488290000004 454.51513680000005 319.93359380000004 454.9799806000001 316.95605480000006 454.9174806000001 C 313.97949230000006 454.8549806000001 310.09667980000006 454.2670900000001 306.76953140000006 453.0581056000001 C 303.44140640000006 451.84912120000007 300.66894550000006 450.02099620000007 298.46484390000006 447.67724620000007 C 296.26025410000005 445.33349620000007 294.62353530000007 442.47607430000005 293.6796876000001 439.4233399000001 C 292.7358399000001 436.3706055000001 292.4843751000001 433.1225586000001 292.9414063000001 430.3413086000001 C 293.3984376000001 427.5581055000001 294.5634766000001 425.2436523000001 295.7377930000001 423.3647461000001 C 296.9125977000001 421.4843750000001 298.09667970000015 420.0415039000001 299.8212891000001 418.9287109000001 C 301.54589850000013 417.81542960000013 303.81152350000013 417.0332031000001 304.8291016000001 416.4916992000001 C 305.8466797 415.949707 305.6152344 415.6489258 304.1992188 415.8154297 L 304.1992188 415.8154297 z M 246.9589844 448.7592773 C 247.991211 448.8198242 250.1728516 449.7963867 252.43408209999998 450.6772461 C 254.69531259999997 451.55810549999995 257.03564459999996 452.34326169999997 260.17187509999997 452.4702149 C 263.30859389999995 452.5952149 267.24218759999997 452.0600586 270.057129 451.9995118 C 272.87255869999996 451.9389649 274.5698243 452.3549806 275.98730479999995 453.1850587 C 277.4047852999999 454.01513680000005 278.54296889999995 455.2592775 280.25000009999997 457.56591810000003 C 281.9570313 459.87255870000007 284.23291029999996 463.2397462 287.74902349999996 465.8881837 C 291.26562509999997 468.5366212 296.02246099999996 470.46435560000003 298.04882819999995 471.4291993 C 300.0751953999999 472.3920899 299.37011729999995 472.3920899 296.44824229999995 472.3920899 C 293.5268555999999 472.3920899 288.3876953999999 472.3920899 285.03564459999996 471.81591799999995 C 281.68310549999995 471.23974609999993 280.1176758 470.0874024 277.42382819999995 468.17724609999993 C 274.72998049999995 466.26904299999995 270.9077149 463.60302729999995 268.38378909999994 462.28466799999995 C 265.86035159999994 460.96435549999995 264.63525389999995 460.98974609999993 262.6601562999999 461.27294919999997 C 260.68505859999993 461.55810549999995 257.9599609999999 462.10107419999997 255.47802739999992 461.9819336 C 252.99609379999993 461.8647461 250.7568359999999 461.0834961 249.46484379999993 460.45263669999997 C 248.17285159999994 459.82177729999995 247.82763679999994 459.3393554 247.43457039999993 457.68896479999995 C 247.04199229999992 456.03662099999997 246.60205089999994 453.21826169999997 246.32275399999992 451.38232419999997 C 246.0439453 449.5483398 245.9262695 448.6967773 246.9589844 448.7592773 L 246.9589844 448.7592773 z" stroke-linecap="round" />
</g>
		<g transform="matrix(2.3982977941929553 0 0 2.3982977941929553 -0.0005855444064764015 55.16539200807864)"  >
<path style="stroke: none; stroke-width: 1; stroke-dasharray: none; stroke-linecap: butt; stroke-dashoffset: 0; stroke-linejoin: miter; stroke-miterlimit: 4; fill: rgb(31,78,110); fill-rule: evenodd; opacity: 1;"  paint-order="stroke"  transform=" translate(-297.58325195, -444.47503865244914)" d="M 247.9287109 460.0444336 C 249.1933593 460.19482419999997 251.7216797 461.0327149 255.2304687 461.31201169999997 C 258.73974599999997 461.58935549999995 263.2290039 461.3081054 265.9472656 461.34326169999997 C 268.6655273 461.37646479999995 269.61328119999996 461.7241211 271.15869139999995 462.81982419999997 C 272.70410159999994 463.91748049999995 274.84765619999996 465.76123049999995 277.24121089999994 467.4819336 C 279.6347655999999 469.2026367 282.27832029999996 470.79638669999997 282.99804679999994 471.5952149 C 283.71826159999995 472.3920899 282.5141600999999 472.3920899 276.13769519999994 472.3920899 C 269.76171859999994 472.3920899 258.21337879999993 472.3920899 252.51611319999995 472.1772461 C 246.81982409999995 471.9624023 246.97460929999994 471.5327148 246.97460929999994 470.5092773 C 246.97460929999994 469.4877929 246.81982409999995 467.8725585 246.74218739999995 466.1831054 C 246.66455069999995 464.4956054 246.66455069999995 462.73193349999997 246.66455069999995 461.58349599999997 C 246.6645508 460.4331055 246.6645508 459.894043 247.9287109 460.0444336 L 247.9287109 460.0444336 z M 305.453125 416.7504883 C 304.0664062 417.21533209999996 301.3037109 418.56494139999995 298.9296875 420.6503906 C 296.5561523 422.7358398 294.5703125 425.5561523 293.5166016 428.1420898 C 292.4624024 430.7299804 292.3403321 433.0795898 292.5122071 435.2475586 C 292.68359380000004 437.4155274 293.1489259 439.3999024 294.22265630000004 441.8647461 C 295.29736330000003 444.331543 296.97998050000007 447.2768555 299.4765626 449.4624024 C 301.97363290000004 451.6479493 305.2832032 453.0717774 307.8232423 454.0854493 C 310.3632814 455.0991212 312.1337892 455.7006837 313.9218751 455.8256837 C 315.709961 455.9526368 317.5156251 455.5991212 321.1113282 454.5366212 C 324.7070313 453.47216810000003 330.091797 451.69677740000003 333.9072266 450.69677740000003 C 337.7236329 449.69677740000003 339.9707032 449.472168 342.1416016 449.54638680000005 C 344.3125 449.6206056000001 346.4072266 449.99560560000003 347.4541016 449.98193370000007 C 348.5019532 449.96826180000005 348.5019532 449.56787120000007 348.5019532 446.3081056000001 C 348.5019532 443.0502931000001 348.5019532 436.9311525000001 348.1220704 433.94287120000007 C 347.74218759999997 430.9565431000001 346.98339849999996 431.10107430000005 344.2470704 432.22607430000005 C 341.5107423 433.34912120000007 336.7988282 435.45458990000003 332.7832032 437.05419930000005 C 328.7685548 438.65380870000007 325.4511719 439.74560560000003 322.1259766 440.47607430000005 C 318.8007813 441.20654300000007 315.4677735 441.57568370000007 312.6132813 441.61279310000003 C 309.75878909999994 441.6499025 307.38183599999996 441.3569337 305.2832032 440.3725587 C 303.1855469 439.3901368 301.3652344 437.7163087 300.3955079 435.6401368 C 299.4267579 433.565918 299.3095704 431.0913087 299.6621095 428.550293 C 300.0146486 426.0112305 300.83691419999997 423.4057617 302.1142579 421.4916992 C 303.39160169999997 419.57714840000006 305.12500009999997 418.35253900000004 305.9873048 417.5297851 C 306.8486328 416.7070313 306.8388672 416.2861328 305.453125 416.7504883 L 305.453125 416.7504883 z" stroke-linecap="round" />
</g>
		<g transform="matrix(2.3982977941929553 0 0 2.3982977941929553 0.0409861898135091 54.36251691373542)"  >
<path style="stroke: none; stroke-width: 1; stroke-dasharray: none; stroke-linecap: butt; stroke-dashoffset: 0; stroke-linejoin: miter; stroke-miterlimit: 4; fill: rgb(26,132,191); fill-rule: evenodd; opacity: 1;"  paint-order="stroke"  transform=" translate(-297.60058580000003, -444.14026992761137)" d="M 248.1191406 438.800293 C 249.80078120000002 439.1245118 252.9370117 440.1850586 255.5566406 440.6772461 C 258.1757812 441.1694336 260.2783203 441.09326169999997 262.5996094 440.4545898 C 264.9204102 439.8139648 267.4609375 438.6069335 270.3271485 436.4409179 C 273.19335950000004 434.27490229999995 276.3862305 431.1499023 279.47705080000003 427.9624023 C 282.5683594 424.7749023 285.55761720000004 421.5288085 288.34765630000004 419.3081054 C 291.1372071 417.0878906 293.72802740000003 415.8935546 296.66162110000005 415.44921869999996 C 299.59570310000004 415.00390619999996 302.8720703000001 415.30859369999996 303.74902340000006 415.5634765 C 304.62500000000006 415.8183593 303.09960930000005 416.0239257 301.4560546000001 416.55078119999996 C 299.8124999000001 417.07714839999994 298.0498046000001 417.92480459999996 296.3007812000001 418.8315429 C 294.5522460000001 419.73828119999996 292.81689450000005 420.7036132 291.35400390000007 421.9467773 C 289.89062500000006 423.1889648 288.69970700000005 424.7084961 287.77441410000006 426.2905273 C 286.8496094000001 427.8725586 286.19091800000007 429.5190429 285.76953130000004 431.2866211 C 285.34863290000004 433.05419919999997 285.16455080000003 434.9428711 285.24365240000003 437.1928711 C 285.3222657 439.4428711 285.66357430000005 442.05419919999997 286.5878907 444.9643555 C 287.5131837 447.8745118 289.0214845 451.081543 291.1396485 453.9428711 C 293.25830080000003 456.80419919999997 295.9863282 459.3178711 299.116211 461.4350586 C 302.2451173 463.5522461 305.7763673 465.27294919999997 308.66015630000004 466.32763669999997 C 311.54296880000004 467.38232419999997 313.7792969 467.77294919999997 316.57128910000006 467.69482419999997 C 319.36425790000004 467.6147461 322.71386720000004 467.0678711 326.41406250000006 466.5112304 C 330.1152344000001 465.9565429 334.16796880000004 465.3920898 337.2949219000001 465.1264648 C 340.42285160000006 464.8627929 342.62500000000006 464.8979492 344.3388672000001 465.1616211 C 346.0517578000001 465.4233399 347.2773438000001 465.91357419999997 348.0107422000001 466.8530274 C 348.7451172000001 467.79248049999995 348.9892578000001 469.18310549999995 348.9892578000001 470.1811524 C 348.9892578000001 471.1791993 348.7451172000001 471.78466799999995 347.83496090000006 472.25537119999996 C 346.9248046 472.72607439999996 345.3476562000001 473.0581056 337.50585930000005 473.0581056 C 329.66406240000003 473.0581056 315.5585937000001 472.7260743 307.26269520000005 472.18505869999996 C 298.96582020000005 471.6420899 296.47900380000004 470.8940431 293.98828110000005 469.8999024 C 291.49755840000006 468.9077149 289.0034178000001 467.6694336 286.90673810000004 465.69873049999995 C 284.8100584 463.7280273999999 283.11083970000004 461.02294919999997 281.48486310000004 458.79443359999993 C 279.85888650000004 456.5659179999999 278.3056639 454.8120116999999 276.58544900000004 453.6791991999999 C 274.86523410000007 452.5463866999999 272.97851540000005 452.03466789999993 270.65039040000005 451.9057616999999 C 268.32226540000005 451.7749022999999 265.55273410000007 452.02880859999993 263.01269510000003 452.0932616999999 C 260.4726561 452.1577147999999 258.16113260000003 452.03466789999993 255.89501930000003 451.55224609999993 C 253.62890600000003 451.06787109999993 251.40722630000002 450.22412109999993 249.87646460000002 449.59912109999993 C 248.34521460000002 448.9760741999999 247.50488260000003 448.57177729999995 247.0849607 447.90380859999993 C 246.66455050000002 447.23779299999995 246.66455050000002 446.30810549999995 246.5517576 444.82958979999995 C 246.4379881 443.35107419999997 246.2119138 441.32568349999997 246.2119138 440.10693349999997 C 246.2119138 438.88818349999997 246.4379883 438.4760742 248.1191406 438.800293 L 248.1191406 438.800293 z" stroke-linecap="round" />
</g>
		<g transform="matrix(2.3982977941929553 0 0 2.3982977941929553 0 0)"  >
<path style="stroke: none; stroke-width: 1; stroke-dasharray: none; stroke-linecap: butt; stroke-dashoffset: 0; stroke-linejoin: miter; stroke-miterlimit: 4; fill: rgb(0,0,0); fill-rule: nonzero; opacity: 1;"  paint-order="stroke"  transform=" translate(-297.5834961, -421.4731445)" d="M 246.6645508 368.8901367 L 350.1669922 368.8901367 L 350.1669922 474.0561523 L 289.29492189999996 474.0561523 L 289.0498047 474.0561523 L 245 474.0561523 L 245 368.8901367 L 246.6645508 368.8901367 L 246.6645508 368.8901367 z M 327.3007813 424.0170898 C 327.48339849999996 424.9135742 326.90527349999996 425.7905273 326.00683599999996 425.9721679 C 325.10937509999997 426.15576169999997 324.23437509999997 425.5776366 324.0507813 424.6791991 C 323.72460939999996 423.0815428 323.39746099999996 421.4824218 323.1845704 419.9086913 C 322.9570313 418.2338866 322.8378907 416.5258788 322.93750009999997 414.751953 C 323.0371095 412.96874990000003 323.36132819999995 411.1054686 323.90625009999997 409.2231444 C 323.98632819999995 408.94433580000003 324.07128919999997 408.6660155 324.1611329 408.3872069 C 324.1757813 408.33496080000003 324.1923829 408.28369130000004 324.21191419999997 408.23291 C 324.70410169999997 406.7373045 325.33105479999995 405.25585920000003 326.08886729999995 403.8198241 C 327.00585949999993 402.0795897 328.11914069999995 400.3906249 329.34375009999997 398.8286132 C 330.24609389999995 397.6767577 331.21484389999995 396.5893554 332.21777349999996 395.5961913 C 332.27148439999996 395.53417959999996 332.33007819999995 395.4765624 332.39257819999995 395.4233397 C 332.7382812999999 395.0859374 333.08789069999995 394.75976549999996 333.43945319999995 394.4462889 C 334.68847659999994 393.33300760000003 335.95507819999995 392.38964830000003 337.18066409999994 391.59082010000003 C 337.24023439999996 391.5468748 337.3007812999999 391.5068357 337.36523439999996 391.4711912 C 337.45800779999996 391.4116209 337.5498047 391.3530271 337.64257819999995 391.29540990000004 C 339.00683599999996 390.437988 340.31347659999994 389.75732400000004 341.46972659999994 389.22070290000005 C 341.83007819999995 389.05273410000007 342.1748046999999 388.8999021000001 342.50683599999996 388.75878880000005 C 342.5898438 388.71533180000006 342.6767579 388.67919900000004 342.76562509999997 388.65039040000005 C 343.3027345 388.42724590000006 343.80664069999995 388.23535130000005 344.2861329 388.0649412 C 344.123047 388.00634740000004 343.9570313 387.948242 343.7871095 387.8906248 C 343.6992189 387.8437498 343.6279298 387.8090818 343.56250009999997 387.7724607 C 343.3642579 387.6596677 343.232422 387.5244138 342.58593759999997 387.6621091 C 341.93945319999995 387.8002927 340.78027349999996 388.2114255 339.56250009999997 388.8105466 C 338.34570319999995 389.4096677 337.07031259999997 390.1972654 335.7783204 391.0781247 L 335.7304688 391.1108395 C 335.9414063 390.6943356 336.2060547 390.23632779999997 336.5791016 389.6958004 C 336.9414063 389.1689449 337.4257813 388.5463863 337.9726563 387.9291988 C 338.3476563 387.5053707 338.7451172 387.09374959999997 339.14062509999997 386.7314449 C 338.8652345 386.68505819999996 338.5830079 386.6411129 338.294922 386.60058549999997 C 337.93847669999997 386.94628859999995 337.5996095 387.28222609999995 337.31250009999997 387.58496049999997 C 336.8320313 388.09326129999994 336.36621099999996 388.6298824 335.93261729999995 389.2226558 C 335.50000009999997 389.8154292 335.08984389999995 390.47558549999997 334.72460949999993 391.1650386 C 334.54980479999995 391.4965816 334.38476569999995 391.83642530000003 334.23242199999993 392.1806636 C 333.43652359999993 392.7773433 332.6250000999999 393.4384761 331.7812500999999 394.2089839 C 331.0810547999999 394.8496089 330.35742199999993 395.56640580000004 329.6640625999999 396.3095698 C 329.8955078999999 394.95507760000004 330.1601563999999 393.589355 330.6767578999999 392.13378850000004 C 330.97167979999995 391.3032221 331.3525391999999 390.44775330000004 331.7929687999999 389.61425720000005 C 332.2304687999999 388.78857360000006 332.72753909999994 387.98925720000005 333.25878909999994 387.26269470000005 C 333.49902349999996 386.93310490000005 333.7460937999999 386.61962830000004 333.9970703999999 386.32031190000004 C 333.74023449999993 386.32372990000005 333.48242199999993 386.3300775 333.22167979999995 386.34081970000005 C 332.96875009999997 386.35156190000004 332.71386729999995 386.36523380000006 332.45703139999995 386.38281190000004 C 332.11425799999995 386.74902280000003 331.77734389999995 387.12304630000006 331.45996109999993 387.52246030000003 C 331.0175782999999 388.0776361 330.58300799999995 388.71874940000004 330.16015639999995 389.5278314 C 329.74414079999997 390.3247064 329.33496109999993 391.2998041 328.96582049999995 392.3144525 C 328.54687519999993 393.4658197 328.19531269999993 394.6196283 327.95410169999997 395.6020502 C 327.6308595 396.9179682 327.4814454 397.99999940000004 327.38574229999995 399.009765 C 326.62304699999993 400.0273431 326.00878919999997 400.9960931 325.54199229999995 401.8559564 L 325.50195319999995 401.853515 C 324.5898437999999 401.7856439 323.90429689999996 400.99023370000003 323.97167979999995 400.0776361 L 323.97265639999995 400.06933530000003 C 324.08789079999997 398.5229486 324.20312519999993 396.97558530000003 324.73437519999993 394.81103450000006 C 325.01660179999993 393.66406180000007 325.4023439999999 392.3847650000001 325.84179709999995 391.1762689000001 C 326.25292989999997 390.04394470000005 326.72363299999995 388.93066340000007 327.21777369999995 387.9848626000001 C 327.38281279999995 387.6669915000001 327.55078149999997 387.3696282000001 327.71972679999993 387.0893548000001 C 327.15625019999993 387.2177728000001 326.59277369999995 387.3613275000001 326.0351564999999 387.5205071000001 C 325.6621095999999 388.18847590000007 325.2919923999999 388.8623040000001 324.9287111999999 389.5571282000001 C 324.4697267999999 390.43603450000006 324.0468752999999 391.3027337000001 323.6962892999999 392.14355400000005 C 323.36230489999986 392.94287040000006 323.0634767999999 393.79882740000005 322.7988283999999 394.68261650000005 C 322.51953149999986 395.61425710000003 322.30078149999986 396.51318290000006 322.13769559999986 397.35742120000003 C 321.97460969999986 398.20361260000004 321.85742219999986 399.0278314 321.76464869999984 399.8393548 C 321.6660158999998 400.6962884 321.5957033999998 401.50292900000005 321.52636739999986 402.30956960000003 C 321.4453126999999 403.2221673 320.6396485999999 403.89697190000004 319.7265626999999 403.8159173 C 318.8134767999999 403.7353509 318.1386720999999 402.9296868 318.2197267999999 402.0166009 C 318.29394559999986 401.1596673 318.3691408999999 400.30175710000003 318.46484399999986 399.4638665 C 318.56640649999986 398.581054 318.69433619999984 397.6777337 318.8759767999999 396.7363274 C 319.0693361999999 395.7353508 319.3144533999999 394.721679 319.6113283999999 393.72900319999997 C 319.88671899999986 392.8095696 320.2265627999999 391.8500969 320.63671899999986 390.8676751 C 320.85839869999984 390.3349603 321.09179709999984 389.818847 321.33300809999986 389.31494069999997 C 320.64648469999986 389.652343 319.98437529999984 390.01464769999995 319.35156279999984 390.39843679999996 C 318.6191408999998 392.1142571 317.90625029999984 393.82226489999994 317.45019559999986 395.43505789999995 L 317.4462892999999 395.43408129999995 L 317.4443361999999 395.43847579999994 C 316.9511720999999 397.1772452999999 316.7226564999999 398.93749919999993 316.4941408999999 400.69726489999994 L 316.4921877999999 400.7104484999999 C 316.3681643999999 401.61767509999993 315.5322268999999 402.25292899999994 314.6250002999999 402.12939379999995 C 313.7197268999999 402.00585859999995 313.0859377999999 401.17285079999994 313.2060549999999 400.26757739999994 C 313.44335969999986 398.4370109999999 313.6806643999999 396.6054679999999 314.2226565999999 394.65380789999995 C 313.3085940999999 395.69775319999997 312.5322268999999 396.8041984999999 311.8300784999999 397.9433586999999 C 310.9960940999999 399.2954094999999 310.2861331999999 400.6406242999999 309.5751956999999 401.9853508999999 C 309.14746129999986 402.7949211999999 308.1445315999999 403.1044914999999 307.33496129999986 402.6767571999999 C 306.52539099999984 402.2480462999999 306.2158206999999 401.2446282999999 306.6435549999999 400.43505799999986 C 307.40527379999986 398.99218689999987 308.1669924999999 397.54980409999985 309.0009768999999 396.1977532999999 C 309.8886721999999 394.7592766999999 310.8808596999999 393.36376889999985 312.0830081999999 392.05566349999987 C 313.2910159999999 390.74072209999986 314.7236331999999 389.5068353999999 316.3388675999999 388.3974603999999 C 316.5781253999999 388.2329095999999 316.8212894999999 388.0717767999999 317.0673831999999 387.91357369999986 C 317.1113284999999 387.8818353999999 317.15722699999986 387.85302679999984 317.20410199999986 387.82665959999986 C 318.53418009999984 386.98339789999983 319.9589847999999 386.23583929999984 321.45507859999987 385.6059564999999 C 323.26757859999987 384.8437494999999 325.20019579999985 384.24414009999987 327.13769579999985 383.8139642999999 C 328.56640669999985 383.4965814999999 330.00488329999985 383.2709954999999 331.41015669999985 383.1396478999999 C 331.4912113999998 383.12597599999987 331.57324259999984 383.1186517999999 331.6552738999998 383.1176751999999 C 332.13671919999985 383.0761712999999 332.61425829999985 383.0454095999999 333.0839847999998 383.0263665999999 C 334.7558597999998 382.9580071999999 336.3339847999998 383.0332024999999 337.7880863999998 383.1933587999999 C 337.8613285999998 383.1967767999999 337.93457079999985 383.20507759999987 338.0068363999998 383.2182610999999 C 338.1162113999998 383.2314446999999 338.2246097999998 383.2441399999999 338.33203169999985 383.2583001999999 C 339.93066449999986 383.4614251999999 341.37207079999985 383.7636712999999 342.60644579999985 384.0830071999999 C 342.9912113999998 384.1826165999999 343.35546919999985 384.2832024999999 343.70117239999985 384.3847649999999 C 343.79296929999987 384.4038079999999 343.8828129999998 384.4301751999999 343.96972709999983 384.4648430999999 C 344.2998051999998 384.5644524999999 344.6132817999998 384.6650383999999 344.91308649999985 384.7666008999999 C 344.73828179999987 384.4003899999999 344.55371149999985 384.0581047999999 344.43554739999985 383.8452141999999 C 344.25976609999987 383.52783139999985 344.23046929999987 383.49804619999986 343.52539109999987 383.2705071999999 C 342.82128949999986 383.0429680999999 341.44043019999987 382.6176751999999 339.7890629999999 382.3017571999999 C 339.4218754999999 382.2314446999999 339.04101609999987 382.1669915999999 338.65039109999987 382.10839779999986 C 339.08886769999987 381.9614250999999 339.57226609999987 381.8164055999999 340.07421919999985 381.68701109999984 C 340.6230472999998 381.54589779999986 341.18261759999984 381.42724549999986 341.71289109999987 381.3486321999998 C 341.51074269999987 381.15576109999984 341.30175829999985 380.9609368999998 341.0859379999999 380.76660089999984 C 340.59668019999987 380.85400319999985 340.1289066999999 380.94189389999985 339.72070359999987 381.03222589999984 C 339.0380863999999 381.1835930999998 338.3515629999999 381.3676750999999 337.66113329999985 381.61621029999986 C 337.41796919999985 381.7036125999999 337.17285199999986 381.7993157999999 336.92675829999985 381.9033196999999 C 336.07226609999987 381.8261712999999 335.1953129999998 381.7841790999999 334.3271488999998 381.7875969999999 C 333.02734419999985 381.7929680999999 331.74707079999985 381.8984367999999 330.4824222999998 382.0454094999999 C 330.8564456999998 381.7187492999999 331.2509769999998 381.3979485999999 331.67578169999985 381.0844719999999 C 332.38476609999987 380.56152279999986 333.1796879999998 380.0659172999999 334.01171919999985 379.6225578999999 C 334.83691449999986 379.1831047999999 335.6953129999998 378.7993156999999 336.54199259999984 378.4946281999999 C 336.9267581999998 378.3564445999999 337.30664099999984 378.2353508999999 337.68164099999984 378.1279289999999 C 337.46777379999986 377.9863273999999 337.25000039999986 377.84716729999985 337.0283206999998 377.7099601999999 C 336.81347689999984 377.5771476999999 336.5937503999998 377.4462882999999 336.3710940999998 377.3168937999999 C 335.8818362999998 377.42822189999987 335.3935549999998 377.5493156999999 334.90722689999984 377.70263599999987 C 334.2294924999998 377.91552659999985 333.5107424999998 378.2021476999999 332.7070315999998 378.63671799999986 C 331.91601599999984 379.06396409999985 331.03125029999984 379.6416007999999 330.15722689999984 380.27587819999985 C 329.16601599999984 380.9951164999998 328.22851599999984 381.75488209999986 327.47753939999984 382.43310479999985 L 327.45214879999986 382.4560539999999 C 326.0966799999999 382.6645500999999 324.7617190999999 382.9179680999999 323.44726599999984 383.30029229999985 C 322.8486331999998 383.47412039999983 322.2548831999998 383.6757805999998 321.6914065999998 383.88769459999986 C 322.6484378999998 382.67675709999986 323.6093753999998 381.46337819999985 325.2539065999998 379.97509689999987 C 326.1298831999998 379.18261639999986 327.16601599999984 378.33886639999986 328.2060549999998 377.5839835999999 C 329.1816408999998 376.8754874999999 330.1943362999998 376.21728439999987 331.13378939999984 375.7099601999999 C 331.4482424999998 375.5395499999999 331.7539065999998 375.3872062999999 332.0507815999998 375.24951099999987 C 331.5126956999998 375.0400382999999 330.9648440999998 374.84374929999984 330.41406279999984 374.6630851999999 C 329.73144559999986 375.0082999999999 329.04687529999984 375.3583976999999 328.35644559999986 375.7314445999999 C 327.48437529999984 376.2021476999999 326.64843779999984 376.68261649999994 325.88769559999986 377.1831047999999 C 325.16308619999984 377.6586906999999 324.43554719999986 378.2006828999999 323.7216799999999 378.7846672999999 C 322.9687502999999 379.39990169999993 322.2841799999999 380.0219719999999 321.6757815999999 380.6303703999999 C 321.0664065999999 381.2397453999999 320.5087893999999 381.85742119999986 319.9765627999999 382.4775383999999 C 319.4150393999999 383.1323235999999 318.9052736999999 383.7617180999999 318.3955080999999 384.3901360999999 C 317.8183596999999 385.10156189999987 316.7724611999999 385.2089837999999 316.0615236999999 384.6308587999999 C 315.3505861999999 384.0527337999999 315.2421877999999 383.0073235999999 315.8212892999999 382.2963860999999 C 316.36230489999986 381.6279290999999 316.9042970999999 380.9594719999999 317.4541017999999 380.3183587999999 C 318.0322267999999 379.6440423999999 318.64355489999986 378.9677728999999 319.3222658999999 378.28906189999987 C 320.04296899999986 377.5683587999999 320.8125002999999 376.86474549999986 321.61523469999986 376.2089837999999 C 322.35742219999986 375.60156189999987 323.17675809999986 374.9970696999999 324.0664065999999 374.4130853999999 C 324.5488284999999 374.09570259999987 325.0322268999999 373.79882759999987 325.51367219999986 373.51660099999987 C 324.75585969999986 373.41162049999986 324.0039065999999 373.34130799999986 323.26464879999986 373.30468689999987 C 321.69726599999984 374.31542909999985 320.15039099999984 375.33203069999985 318.86914099999984 376.41259709999986 L 318.86621129999986 376.40917909999985 L 318.8623049999999 376.41259709999986 C 317.4804690999999 377.57665959999986 316.3046877999999 378.90722599999987 315.13085969999986 380.23681589999984 L 315.1210940999999 380.2465814999998 C 314.5107424999999 380.92871039999983 313.4619143999999 380.9873041999998 312.78027379999986 380.3769525999998 C 312.0986331999999 379.76708929999984 312.04003939999984 378.7216791999998 312.64648469999986 378.03906199999983 C 313.86816439999984 376.65527289999983 315.09082059999986 375.27148389999985 316.63281279999984 373.95800729999985 C 315.2910158999998 374.31054639999985 314.02734399999986 374.79296819999985 312.8076174999998 375.34326119999986 C 311.36035189999984 375.9965814999999 310.0185549999998 376.71337839999984 308.6767580999998 377.42968699999983 C 307.8691408999998 377.86083929999984 306.8642580999998 377.5551752999998 306.4335939999998 376.74706979999985 C 306.0019533999998 375.93896429999984 306.3076173999998 374.93456979999985 307.1162111999998 374.50341749999984 C 308.5546877999998 373.73437449999983 309.99414089999976 372.96581979999985 311.4423830999998 372.31249949999983 L 311.6503908999998 372.21972609999983 L 248.32959009999982 372.21972609999983 L 248.32959009999982 387.3398432999998 L 314.8164064999998 387.3398432999998 C 314.2070314999998 387.7636713999998 313.4765626999998 388.2998041999998 312.7421876999998 388.9458002999998 C 312.1582032999998 389.4604486999998 311.5722657999998 390.0444330999998 311.0185548999998 390.6694330999998 L 248.3295900999998 390.6694330999998 L 248.3295900999998 405.2226557999998 L 323.5546877999998 405.2226557999998 C 323.3554689999998 405.5839838999998 323.1455080999998 405.9999995999998 322.93945339999976 406.4692377999998 C 322.64941429999976 407.1240229999998 322.3662111999998 407.8818354999998 322.19921899999974 408.5522455999998 L 248.32959009999973 408.5522455999998 L 248.32959009999973 422.6166986999998 L 281.9833986999997 422.6166986999998 C 284.1127931999997 420.1186517999998 286.08203149999974 417.9721673999998 288.3359377999997 416.3623041999998 C 290.0400393999997 415.1455072999998 291.8759768999997 414.26025339999984 293.7128908999997 413.66503859999983 C 295.7504885999997 413.00488229999985 297.7836916999997 412.7026362999998 299.6347658999997 412.7026362999998 C 301.4023439999997 412.7026362999998 303.0078127999997 412.97558549999985 304.3515627999997 413.3164057999998 C 305.6630861999997 413.64941359999983 306.7138674999997 414.0463862999998 307.4140627999997 414.3110346999998 C 311.9755861999997 416.0341791999998 311.9755861999997 416.0341791999998 307.7041018999997 418.5585932999998 C 307.1054690999997 418.9121088999998 306.2070315999997 419.4433588999998 305.28808629999975 420.2319330999998 C 304.57519569999977 420.84374949999983 303.82812539999975 421.6225580999998 303.1572268999997 422.6166986999998 L 321.98632849999973 422.6166986999998 C 322.15136759999973 423.2592767999998 322.31152379999975 423.9077142999998 322.55664099999973 424.6909174999998 C 322.6806643999997 425.0874018999998 322.8261722999997 425.5170893999998 323.0126956999997 425.9467768999998 L 301.546875 425.9467768999998 C 301.2001953 426.9682612999998 300.9355469 428.0698237999998 300.7871094 429.1831049999998 C 300.54882810000004 430.9721674999998 300.61230470000004 432.7670893999998 301.12011720000004 434.27880809999976 C 301.63281250000006 435.80615189999975 302.62597660000006 437.07763619999974 304.01953130000004 438.04443309999976 C 305.50292970000004 439.0737299999998 307.44238290000004 439.77490189999975 309.75195320000006 440.09130809999976 C 312.08886730000006 440.41162059999976 314.7880860000001 440.34130809999976 317.59960950000004 439.9702142999998 C 320.64648450000004 439.5678704999998 323.81542980000006 438.8120111999998 326.7988283 437.8120111999998 C 331.1113283 436.3686517999998 335.10839860000004 434.3764642999998 338.2539064 432.8081048999998 C 339.3583986 432.25732359999984 340.3623048 431.75732359999984 341.2187502 431.35888609999984 C 343.00195329999997 430.52880799999986 344.3359377 430.04443299999986 345.4453127 429.73388609999984 C 345.9599611 429.58935479999985 346.4150393 429.48388609999984 346.8369143 429.40185479999985 L 346.8369143 390.72363209999986 C 346.1035159 390.94775319999985 345.3447268 391.19872979999985 344.5136721 391.52441339999984 C 344.2167971 392.18066339999984 343.9501955 392.8608391999998 343.8066408 393.64648369999986 C 343.7138674 394.15429619999986 343.66210950000004 394.7148430999999 343.6416017 395.26415949999983 C 343.6171876 395.89843679999984 343.6367189 396.5493157999998 343.6835939 397.1064446999998 C 343.763672 398.0439446999998 343.9394533 398.6542962999998 344.1152345 399.2587884999998 L 344.11816419999997 399.2578118999998 C 344.3896486 400.1372063999998 343.8964845 401.0688470999998 343.01855479999995 401.3398431999998 C 342.13964849999996 401.6108392999998 341.2080078999999 401.1176751999998 340.93652349999996 400.2397454999998 L 340.94042979999995 400.2377923999998 L 340.93164069999995 400.20996039999983 C 340.7070312999999 399.43994089999984 340.4804687999999 398.66699159999985 340.3720703999999 397.3837884999998 C 340.31835949999993 396.7460931999998 340.29785159999994 395.9575189999998 340.32910159999994 395.1342767999998 C 340.34960939999996 394.5678704999998 340.3955078999999 393.99804629999977 340.47070319999995 393.46679629999977 C 340.22851569999995 393.60595649999976 339.98242189999996 393.75097599999975 339.73437509999997 393.9023431999998 C 339.67871099999996 394.3955072999998 339.6298829 394.8701165999998 339.60058599999996 395.2866204999998 C 339.5507813 395.9843743999998 339.53222659999994 396.6948235999998 339.5732422 397.42773379999977 C 339.61425779999996 398.1601556999998 339.71679689999996 398.93066349999975 339.87207029999996 399.69531189999975 C 340.02343749999994 400.44140569999973 340.23144529999996 401.18847599999975 340.48535159999994 401.89404239999976 C 340.9882812999999 403.28857369999974 341.70214849999996 404.5302728999998 342.41601569999995 405.77099549999974 L 342.41992199999993 405.77783139999974 C 342.88085949999993 406.57031189999975 342.61230479999995 407.58740169999976 341.81933609999993 408.04833919999976 C 341.02734389999995 408.50927669999976 340.0097657999999 408.2407219999998 339.5488282999999 407.44824149999977 L 339.5400391999999 407.43310479999974 C 338.7519532999999 406.06152279999975 337.9628907999999 404.68994069999974 337.35839859999993 403.0131828999997 C 337.05859389999995 402.1840812999997 336.80957049999995 401.2817375999997 336.62207049999995 400.3574211999997 C 336.43554709999995 399.4414055999997 336.31250019999993 398.5083000999997 336.26269549999995 397.6103508999997 C 336.23925799999995 397.2021477999997 336.23144549999995 396.8037102999997 336.23535169999997 396.4130852999997 C 336.03906259999997 396.5781243999997 335.8427736 396.7475579999997 335.64843759999997 396.9208977999997 C 335.45996099999996 397.0893547999997 335.2714845 397.2622063999997 335.0839845 397.4389641999997 C 335.0517579 397.9389641999997 335.0283204 398.4418938999997 335.0371095 398.9521477999997 C 335.04785169999997 399.6616204999997 335.11816419999997 400.4331047999997 335.30468759999997 401.3266594999997 C 335.4892579 402.20654229999974 335.79101569999995 403.2202141999997 336.15039069999995 404.2382805999997 C 336.55761729999995 405.3935539999997 337.01757819999995 406.5092766999997 337.45410159999994 407.4213860999997 C 338.29687499999994 409.1811516999997 339.11035159999994 410.3374016999997 339.92285159999994 411.4921868999997 L 339.92773439999996 411.4990227999997 C 340.45507819999995 412.2475579999997 340.27441409999994 413.2817375999997 339.5263672 413.8085930999997 C 338.7773438 414.3354485999997 337.7441406 414.1552727999997 337.21679689999996 413.4067375999997 L 337.21191409999994 413.4003898999997 C 336.32031249999994 412.1318351999997 335.42675779999996 410.8627921999997 334.4648437999999 408.8525382999997 C 333.95410159999994 407.7875968999997 333.4404296999999 406.5537101999997 333.0136718999999 405.3413077999997 C 332.6132812999999 404.2045889999997 332.2705077999999 403.0458975999997 332.0517577999999 402.0019522999997 C 331.9785155999999 401.65087809999966 331.9189452999999 401.3144522999997 331.8720702999999 400.9902334999997 C 331.5175780999999 401.4472647999997 331.1728514999999 401.9160147999997 330.8427733999999 402.3935537999997 C 330.97949219999987 403.1455068999997 331.12011719999987 403.9013662999997 331.2812499999999 404.6689443999997 C 331.4833983999999 405.6391591999997 331.70605469999987 406.5776357999997 331.9687499999999 407.44970609999973 C 332.2187499999999 408.27929589999974 332.5302733999999 409.13085839999974 332.88671879999987 409.98193269999973 C 333.26171879999987 410.8789053999997 333.66308599999985 411.7124014999997 334.07324219999987 412.46874909999974 C 334.48339849999985 413.22656159999974 334.91601559999987 413.93749909999974 335.3593749999999 414.62402249999974 C 335.8271483999999 415.34863189999976 336.28515629999987 416.0166005999997 336.7421874999999 416.68408109999973 C 337.25976559999987 417.44140529999976 337.06445309999987 418.4736318999997 336.30761719999987 418.9907216999997 C 335.55078129999987 419.5073232999997 334.51855469999987 419.3129872999997 334.00195309999987 418.5556630999997 C 333.5156249999999 417.8466786999997 333.02832029999985 417.13622949999973 332.57128899999987 416.4272450999997 C 332.08886709999985 415.6806630999997 331.6152342999999 414.9013661999997 331.15820309999987 414.05810449999973 C 330.67285149999987 413.16210839999974 330.2177733999999 412.22363179999974 329.81738279999985 411.2675771999997 C 329.44726559999987 410.3823232999997 329.10156249999983 409.4248037999997 328.79492189999985 408.4057607999997 C 328.62792969999987 407.8525380999997 328.48144529999985 407.3056630999997 328.34765629999987 406.76318269999973 C 328.0312499999999 407.4604482999997 327.7499999999999 408.1601553999997 327.50390629999987 408.8588857999997 C 328.02636719999987 410.6499013999997 328.55957039999987 412.4213857999997 329.22949219999987 413.95751859999973 L 329.2265624999999 413.9594716999997 L 329.22851559999987 413.9638661999997 C 329.95019529999985 415.6201161999997 330.8906249999999 417.1259755999997 331.83105469999987 418.6308583999997 L 331.8369140999999 418.64257719999966 C 332.31738289999987 419.42236239999966 332.07421879999987 420.44335849999965 331.2949218999999 420.92382719999966 C 330.5166015999999 421.40331939999965 329.4970702999999 421.16210849999965 329.0166015999999 420.38574129999967 C 328.0380859999999 418.8203115999997 327.0605468999999 417.25390539999967 326.2402343999999 415.40136629999967 C 326.1962890999999 416.78857329999965 326.2978515999999 418.13671789999967 326.4785156999999 419.46288969999966 C 326.6914063 421.0366211 326.9960938 422.5268555 327.3007813 424.0170898 L 327.3007813 424.0170898 z M 333.4277344 372.2197266 C 334.7802735 372.7543946 336.08984380000004 373.3701172 337.3203125 374.0439454 C 337.3955078 374.07812509999997 337.4677734 374.1176759 337.5361328 374.16308599999996 C 337.9580078 374.39794929999994 338.37011720000004 374.64013679999994 338.7705078 374.8876954 C 340.1933594 375.7670899 341.4589844 376.713379 342.5742187 377.6601563 C 342.6328125 377.7041016 342.68847650000004 377.7519532 342.7412109 377.8032227 C 342.8251953 377.875 342.9072265 377.9462891 342.9892578 378.0180665 C 344.1992187 379.0820313 345.2236328 380.1401368 346.0683594 381.0957032 C 346.33105470000004 381.3935548 346.5761719 381.6801759 346.8066407 381.9584962 L 346.8369141 381.9907228 L 346.8369141 372.2197267 L 333.4277344 372.2197267 L 333.4277344 372.2197266 z M 248.3295898 458.3530273 C 250.05859370000002 459.2436523 251.84667960000002 460.0405273 254.0371093 460.1928711 C 255.9941406 460.331543 258.4111327 459.99951169999997 260.6474609 459.6928711 C 261.5595703 459.5678711 262.4443359 459.4467773 263.234375 459.362793 C 264.7924805 459.19677740000003 266.1621094 459.1479492 267.4741211 459.31396490000003 C 268.8554688 459.4897462 270.1220703 459.8959962 271.3925781 460.63427740000003 C 273.12353509999997 461.64208990000003 274.7685547 463.2143555 276.3935547 464.769043 C 276.9482422 465.29833990000003 277.5 465.8256836 278.1035156 466.3706055 C 279.10791009999997 467.2788086 280.086914 468.065918 281.0410156 468.7006836 C 281.9638672 469.315918 282.868164 469.7924805 283.75488279999996 470.1049805 C 284.6191406 470.409668 285.50390619999996 470.565918 286.39746089999994 470.644043 C 287.24999999999994 470.72021490000003 288.1337889999999 470.7260743 289.02001949999993 470.72802740000003 L 289.06591789999993 470.72802740000003 L 289.11181629999993 470.72802740000003 L 289.15771469999993 470.72802740000003 L 289.2036130999999 470.72802740000003 L 289.2495114999999 470.72802740000003 L 289.2949216999999 470.72802740000003 L 291.04052719999993 470.72802740000003 C 290.8627927999999 470.64599610000005 290.68701159999995 470.56201180000005 290.5136716999999 470.47607430000005 C 288.9565427999999 469.71044930000005 287.6118161999999 468.82568370000007 286.40234359999994 467.78076180000005 C 285.19140609999994 466.73583990000003 284.13574199999994 465.55224620000007 283.1567380999999 464.18505870000007 C 282.4130857999999 463.14794930000005 281.65771469999993 461.90380870000007 280.9052732999999 460.66357430000005 C 279.9428709999999 459.07763680000005 278.9853513999999 457.49951180000005 277.9619138999999 456.31005870000007 C 277.1616208999999 455.3764649000001 276.3056638999999 454.67724620000007 275.3847654999999 454.1811524000001 C 274.4775388999999 453.6948243000001 273.4877927999999 453.3999024000001 272.4067381999999 453.26904300000007 C 270.4819334999999 453.0385742000001 268.1811522999999 453.32373050000007 265.9160154999999 453.60693360000005 C 265.5004881999999 453.65771490000003 265.0854490999999 453.70849610000005 264.4360349999999 453.78271490000003 C 262.9897458999999 453.9487305 261.5644529999999 454.06982430000005 260.0751951999999 454.0600587 C 258.5556638999999 454.05029310000003 257.0341795999999 453.9038087 255.46630849999988 453.5307618 C 253.15429679999988 452.9819337 250.75292959999987 451.956543 248.32958969999987 450.8120118 L 248.32958969999987 458.3530273 L 248.3295898 458.3530273 z M 278.1557617 470.7280273 C 277.3964844 470.1596679 276.6386719 469.5288085 275.87939450000005 468.8432617 C 275.32910150000004 468.3452148 274.71777340000006 467.76123040000004 274.10449220000004 467.17529290000004 C 272.61816410000006 465.75341790000004 271.1142578 464.31591790000004 269.72802740000003 463.50927730000006 C 268.85546880000004 463.00146480000006 267.99267580000003 462.7241210000001 267.0581055 462.60498040000004 C 266.0541992 462.47802730000006 264.9194336 462.52490230000006 263.5854492 462.66748040000004 C 262.77880860000005 462.75341790000004 261.94726560000004 462.8666992 261.0898437 462.9838867 C 258.6850585 463.3139648 256.08691400000004 463.66943360000005 253.81591790000002 463.5092773 C 251.66845700000002 463.3588867 249.92871090000003 462.7788085 248.3295898 462.0502929 L 248.3295898 470.7280273 L 278.1557617 470.7280273 L 278.1557617 470.7280273 z M 248.3295898 447.1303711 C 251.0644531 448.45263669999997 253.774414 449.7084961 256.2338867 450.2924805 C 257.57226560000004 450.61083990000003 258.8408203 450.73583990000003 260.08789060000004 450.74365240000003 C 261.3657226 450.75146490000003 262.68652340000006 450.6362305 264.0585937 450.4799805 C 264.3798828 450.4428711 264.9458007 450.3725586 265.5126953 450.3022461 C 267.97167970000004 449.9975586 270.46875 449.68701169999997 272.79736330000003 449.9663086 C 274.28515630000004 450.144043 275.6674805 450.56201169999997 276.95849610000005 451.2553711 C 278.23535160000006 451.9428711 279.40722660000006 452.894043 280.48535160000006 454.1499024 C 281.65820320000006 455.5151368 282.69677740000003 457.2280274 283.74072270000005 458.9467774 C 284.41503910000006 460.05810549999995 285.09228520000005 461.17529299999995 285.86181650000003 462.24755869999996 C 286.70263680000005 463.42138679999994 287.58642590000005 464.41943369999996 288.57421880000004 465.27099619999996 C 289.56298830000003 466.12451179999994 290.6777344 466.8549806 291.9833985 467.49755869999996 C 294.6303712 468.8002931 298.1435548 469.76708999999994 301.6728516 470.72802749999994 L 346.8369141 470.72802749999994 L 346.8369141 467.7221680999999 C 343.6171875 466.9819336999999 340.3916016 466.33740249999994 337.1210938 466.5190430999999 C 334.5341797 466.6635743999999 331.7988282 467.3198243999999 328.9111329 468.0112305999999 C 327.53808599999996 468.3413086999999 326.1298829 468.6791993999999 324.73437509999997 468.9682618999999 C 322.3789063 469.4565431999999 319.9101563 469.8452149999999 317.18652349999996 469.8471681999999 C 314.43847659999994 469.84912129999987 311.4736329 469.4565431999999 308.17871099999996 468.3784181999999 C 304.74902349999996 467.2573243999999 300.9423829 465.3842775999999 297.4458008 462.9760743999999 C 294.2983399 460.8081055999999 291.3867188 458.1928712999999 289.2036133 455.2846680999999 C 287.1328125 452.52490249999994 285.73144529999996 449.5268555999999 284.8188477 446.57177749999994 C 283.6875 442.91162119999996 283.3046875 439.31005869999996 283.3217774 436.32568369999996 C 283.3374024 433.59130869999996 283.6870118 431.35693369999996 284.2797852 429.4311524 C 284.8813477 427.4760743 285.7275391 425.8510743 286.7285157 424.3530274 C 287.685547 422.9213868 288.784668 421.60937509999997 289.9501954 420.4536133 C 291.18505869999996 419.22998049999995 292.5063477 418.17285159999994 293.8232423 417.3300781 C 294.0703126 417.1723633 294.3159181 417.0224609 294.5615236 416.8803711 C 293.0937502 417.3725586 291.6274416 418.09179689999996 290.2607423 419.0678711 C 287.8251954 420.8076172 285.6215821 423.42919919999997 283.0498048 426.49169919999997 C 282.2749025 427.4116211 281.4648439 428.37646479999995 280.8334962 429.10888669999997 C 278.9628907 431.2788086 276.8579103 433.59326169999997 274.6391603 435.66552729999995 C 272.3681642 437.78662109999993 269.96435560000003 439.66943359999993 267.536133 440.92138669999997 C 265.3129885 442.0678711 263.0991213 442.67919919999997 261.004883 442.93115229999995 C 258.4150392 443.24365229999995 256.0117189 443.00927729999995 254.0039064 442.56787099999997 C 251.6835939 442.06005849999997 249.9082033 441.2924804 248.32959 440.4311522 L 248.32959 447.1303711 L 248.3295898 447.1303711 z M 296.2871094 419.7133789 C 296.0605469 419.84375 295.8330078 419.980957 295.60546880000004 420.1264648 C 294.49462900000003 420.8374023 293.36425790000004 421.7441406 292.29150400000003 422.8081054 C 291.27197270000005 423.81787099999997 290.31445320000006 424.96044919999997 289.48583990000003 426.20068349999997 C 288.65234380000004 427.4487304 287.9487305 428.79638659999995 287.4531251 430.40576159999995 C 286.94921880000004 432.04443349999997 286.65234380000004 433.96435539999993 286.63867200000004 436.33935539999993 C 286.62304700000004 439.03271479999995 286.96923840000005 442.2866209999999 287.9921876 445.59716789999993 C 288.80273450000004 448.22021479999995 290.03857430000005 450.8725584999999 291.8569337 453.2944334999999 C 293.8100587 455.8959959999999 296.4531251 458.26123039999993 299.3310548 460.2436522999999 C 302.5537111 462.4643553999999 306.0556642 464.1889647999999 309.2060548 465.2182616999999 C 312.1503907 466.1811522999999 314.7724611 466.5307616999999 317.1865236 466.5307616999999 C 319.6220705 466.52880859999993 321.8896486 466.16748039999993 324.07128919999997 465.71630859999993 C 325.49707049999995 465.4213866999999 326.83593759999997 465.09912109999993 328.14355479999995 464.78662109999993 C 331.19433609999993 464.0541991999999 334.0830078999999 463.36083979999995 336.93945319999995 463.2026366999999 C 340.39648449999993 463.0092772999999 343.63574229999995 463.5932616999999 346.83691409999994 464.3120116999999 L 346.83691409999994 451.5463866999999 C 346.08398439999996 451.2885741999999 345.32910159999994 451.0463866999999 344.56738279999996 450.85498039999993 C 343.4716797 450.57958979999995 342.34374999999994 450.39990229999995 341.15527339999994 450.4116209999999 C 339.94335929999994 450.42529289999993 338.61718749999994 450.63623039999993 337.11230459999996 451.0307615999999 C 335.54980459999996 451.4389646999999 333.81054679999994 452.0463865999999 331.8271483 452.8354490999999 C 331.18164049999996 453.0913084999999 330.6874999 453.2944334999999 330.1777342 453.5034178999999 C 326.2783201 455.0971678999999 321.6757811 456.9799803999999 316.66406229999996 457.19482419999986 C 313.84277319999995 457.3178710999999 310.93749979999996 456.9038085999999 308.20507789999994 456.11083979999984 C 305.2939450999999 455.26513669999986 302.56835909999995 453.98583979999984 300.34179659999995 452.46044919999986 C 298.14648409999995 450.9565428999999 296.43164029999997 449.2241210999999 295.08935519999994 447.42333979999984 C 293.75488249999995 445.63427729999984 292.78417939999997 443.77099599999985 292.07275359999994 442.00146479999984 C 291.36132779999997 440.2299803999998 290.90820279999997 438.54052729999984 290.68798799999996 436.85693349999985 C 290.46679659999995 435.17138659999983 290.48242159999995 433.50537099999985 290.70605439999997 431.78662099999985 C 290.93261689999997 430.0483396999999 291.3749997 428.24755849999985 292.0117185 426.5346678999999 C 292.62548799999996 424.8862303999999 293.4174802 423.3217772999999 294.3691404 421.9721678999999 C 294.9560547 421.1396484 295.6040039 420.3876953 296.2871094 419.7133789 L 296.2871094 419.7133789 z M 300.6601563 420.4038086 C 300.2978516 420.6474609 299.9375 420.9145508 299.5830079 421.2060547 C 298.6894532 421.9389649 297.8310548 422.8295899 297.0874024 423.8842774 C 296.2939454 425.0092774 295.63281259999997 426.31591799999995 295.1201172 427.69287119999996 C 294.5727539 429.16552749999994 294.1918945 430.71630869999996 293.996582 432.21630869999996 C 293.8100586 433.6518556 293.7958984 435.0346681 293.9780273 436.42919929999994 C 294.1616211 437.82568369999996 294.5463867 439.24951179999994 295.1552734 440.76513679999994 C 295.765625 442.2846680999999 296.60107419999997 443.8862305999999 297.7553711 445.4331055999999 C 298.9013672 446.97021499999994 300.3583984 448.4448243999999 302.2148438 449.7163086999999 C 304.16992189999996 451.0561524999999 306.5664063 452.1791992999999 309.1289063 452.9233399999999 C 311.52929689999996 453.62060559999986 314.06933599999996 453.9838868999999 316.5205079 453.87841809999986 C 320.9726563 453.6870117999999 325.28027349999996 451.92529309999986 328.92871099999996 450.43310559999986 C 329.5595704 450.17529309999986 330.17480479999995 449.9233399999999 330.60449229999995 449.75341809999986 C 332.71777359999993 448.91162119999984 334.58398449999993 448.26318369999984 336.28027359999993 447.81787119999984 C 338.03515639999995 447.35693369999984 339.62402359999993 447.11279309999986 341.12890639999995 447.09521489999986 C 342.65722669999997 447.07958989999986 344.04980479999995 447.2963867999999 345.37304699999993 447.62841799999984 C 345.8720703999999 447.7553710999998 346.35839859999993 447.8959960999998 346.8369141999999 448.0463867999998 L 346.8369141999999 432.8041992999998 C 346.6767578999999 432.8432617999998 346.5126953999999 432.8842773999998 346.34277359999993 432.9331055999998 C 345.41015639999995 433.1948243999998 344.24707049999995 433.6206055999998 342.62304699999993 434.3764649999998 C 341.75292979999995 434.7827149999998 340.79296889999995 435.2592774999998 339.73632819999995 435.7866212999998 C 336.52246099999996 437.3881837999998 332.43847659999994 439.4233400999998 327.85253909999994 440.9604493999998 C 324.67675779999996 442.02490249999977 321.2929687999999 442.82958999999977 318.02929689999996 443.26123069999977 C 314.93652349999996 443.66943379999975 311.9404297 443.74169949999975 309.30957029999996 443.38037129999975 C 306.4716797 442.99169939999973 304.04296869999996 442.10107439999973 302.133789 440.77490249999977 C 300.14453119999996 439.3959961999998 298.7207031 437.55810559999975 297.9731445 435.33154309999975 C 297.2944336 433.31201179999977 297.196289 431.00341809999975 297.496582 428.75341809999975 C 297.828125 426.27099619999973 298.6513672 423.82373059999975 299.711914 421.90771499999977 C 300.0126953 421.3642578 300.3310547 420.8642578 300.6601563 420.4038086 L 300.6601563 420.4038086 z M 248.3295898 436.5834961 C 250.1308593 437.6850586 252.03125 438.7299805 254.70605460000002 439.3178711 C 256.408203 439.690918 258.439453 439.89013669999997 260.6142577 439.628418 C 262.3505858 439.4194336 264.1821288 438.91552740000003 266.0146483 437.9682617 C 268.1386717 436.87255860000005 270.30126939999997 435.1713867 272.37597639999996 433.2338867 C 274.50244119999996 431.24755860000005 276.52441389999996 429.0229492 278.32373029999997 426.9370117 C 278.6333006 426.5776367 278.9130858 426.2514648 279.17187479999996 425.9467773 L 248.32958959999996 425.9467773 L 248.32958959999996 436.5834961 L 248.3295898 436.5834961 z" stroke-linecap="round" />
</g>
</g>
</g>
<g transform="matrix(1.9211538461538462 0 0 1.9211538461538462 823.8173883338341 479.32661604897913)" id="text-logo"  >
<g style=""  paint-order="stroke"   >
		<g transform="matrix(1 0 0 1 0 0)" id="text-logo-path-0"  >
<path style="stroke: none; stroke-width: 0; stroke-dasharray: none; stroke-linecap: butt; stroke-dashoffset: 0; stroke-linejoin: miter; stroke-miterlimit: 4; fill: rgb(0,0,0); fill-rule: nonzero; opacity: 1;"  paint-order="stroke"  transform=" translate(-199.67, 26.07)" d="M 4.88 -13.55 L 4.88 -13.55 L 4.88 -37.29 Q 4.88 -42.93 6.47 -45.82 Q 8.06 -48.71 11.31 -50.69 L 11.31 -50.69 Q 14.63 -52.54 19.22 -52.54 L 19.22 -52.54 Q 24.93 -52.54 29.74 -50.08 L 29.74 -50.08 L 28.58 -47.3 Q 24.35 -48.85 20.56 -48.85 L 20.56 -48.85 Q 9.03 -48.85 9.03 -37.98 L 9.03 -37.98 L 9.03 -13.69 Q 9.03 -4.01 18.43 -3.11 L 18.43 -3.11 Q 19.15 -2.96 19.98 -2.96 L 19.98 -2.96 Q 24.43 -2.96 30.71 -5.17 L 30.71 -5.17 L 31.58 -1.7 Q 25.4 0.72 19.8 0.72 L 19.8 0.72 Q 19.73 0.72 19.62 0.72 L 19.62 0.72 Q 18.43 0.72 16.02 0.51 Q 13.62 0.29 10.91 -1.16 Q 8.2 -2.6 6.54 -5.75 Q 4.88 -8.89 4.88 -13.55 Z M 66.27 0 L 39.57 0 L 39.57 -51.81 L 43.68 -51.81 L 43.68 -3.69 L 66.27 -3.69 L 66.27 0 Z M 72.56 -13.69 L 72.56 -13.69 L 72.56 -37.51 Q 72.56 -45.13 76.73 -49.05 Q 80.9 -52.97 88.24 -52.97 Q 95.57 -52.97 99.6 -48.83 Q 103.63 -44.7 103.63 -37.43 L 103.63 -37.43 L 103.63 -13.69 Q 103.63 -6.21 99.08 -2.69 Q 94.52 0.83 88.16 0.83 Q 81.81 0.83 77.18 -2.69 Q 72.56 -6.21 72.56 -13.69 Z M 76.71 -38.19 L 76.71 -13.77 Q 76.71 -8.53 79.93 -5.82 Q 83.14 -3.11 88.13 -3.11 Q 93.11 -3.11 96.35 -5.73 Q 99.58 -8.35 99.58 -13.84 L 99.58 -13.84 L 99.58 -38.19 Q 99.58 -43.61 96.42 -46.34 Q 93.26 -49.07 88.09 -49.07 Q 82.93 -49.07 79.82 -46.32 Q 76.71 -43.58 76.71 -38.19 L 76.71 -38.19 Z M 115.55 -13.77 L 115.55 -13.77 L 115.55 -51.89 L 119.67 -51.89 L 119.67 -13.19 Q 119.67 -8.67 122.98 -5.93 Q 126.29 -3.18 131.09 -3.18 Q 135.9 -3.18 139.22 -5.93 Q 142.54 -8.67 142.54 -13.19 L 142.54 -13.19 L 142.54 -51.89 L 146.7 -51.89 L 146.7 -13.77 Q 146.7 -9.83 145.33 -6.96 Q 143.95 -4.08 141.62 -2.53 Q 139.29 -0.98 136.71 -0.23 Q 134.13 0.51 131.16 0.51 Q 128.2 0.51 125.56 -0.23 Q 122.92 -0.98 120.59 -2.53 Q 118.26 -4.08 116.91 -6.96 Q 115.55 -9.83 115.55 -13.77 Z M 174.67 0 L 159.27 0 L 159.27 -51.89 L 173.19 -51.89 Q 181.53 -51.89 185.94 -47.3 Q 190.35 -42.71 190.35 -35.08 L 190.35 -35.08 L 190.35 -14.81 Q 190.35 0 174.67 0 L 174.67 0 Z M 163.39 -48.09 L 163.39 -3.69 L 173.47 -3.69 Q 186.19 -3.69 186.19 -14.06 L 186.19 -14.06 L 186.19 -35.81 Q 186.19 -42.02 182.49 -45.06 Q 178.79 -48.09 173.91 -48.09 L 173.91 -48.09 L 163.39 -48.09 Z M 220.45 0 L 203.43 0 L 203.43 -51.81 L 219.76 -51.81 Q 225.83 -51.81 229.32 -48.71 Q 232.81 -45.6 232.81 -39.04 Q 232.81 -32.48 227.93 -29.16 L 227.93 -29.16 Q 227.85 -29.09 227.85 -29.01 L 227.85 -29.01 L 227.85 -28.94 Q 231.11 -27.46 233.29 -24.12 Q 235.48 -20.78 235.48 -15.46 L 235.48 -15.46 Q 235.48 -9.54 232.44 -5.17 L 232.44 -5.17 Q 230.89 -2.78 227.82 -1.39 Q 224.75 0 220.45 0 L 220.45 0 Z M 207.55 -26.49 L 207.55 -3.94 L 220.3 -3.94 Q 231.03 -3.94 231.03 -15.75 L 231.03 -15.75 Q 231.03 -20.92 228.22 -23.7 Q 225.4 -26.49 221.57 -26.49 L 221.57 -26.49 L 207.55 -26.49 Z M 207.55 -47.88 L 207.55 -30.57 L 219.62 -30.57 Q 223.77 -30.57 226.14 -32.79 Q 228.51 -35.01 228.51 -39.2 L 228.51 -39.2 Q 228.51 -47.88 219.18 -47.88 L 219.18 -47.88 L 207.55 -47.88 Z M 249.35 0 L 245.24 0 L 245.24 -51.81 L 263.45 -51.81 Q 270.49 -51.81 273.92 -47.51 Q 277.36 -43.21 277.36 -35.95 L 277.36 -35.95 Q 277.36 -32.48 277.09 -30.04 Q 276.82 -27.61 275.26 -24.39 Q 273.71 -21.17 270.82 -19.62 L 270.82 -19.62 L 277.43 0 L 273.2 0 L 266.91 -18.36 Q 265.58 -18.14 263.95 -18.14 L 263.95 -18.14 L 249.35 -18.14 L 249.35 0 Z M 249.35 -47.88 L 249.35 -22.19 L 264.02 -22.19 Q 266.7 -22.19 268.54 -23.27 Q 270.38 -24.35 271.27 -25.69 Q 272.15 -27.03 272.62 -29.3 L 272.62 -29.3 Q 273.2 -31.91 273.2 -35.95 L 273.2 -35.95 Q 273.2 -41.95 270.65 -44.91 Q 268.11 -47.88 263.74 -47.88 L 263.74 -47.88 L 249.35 -47.88 Z M 313.09 0 L 288.52 0 L 288.52 -51.81 L 313.24 -51.81 L 313.24 -47.95 L 292.64 -47.95 L 292.64 -30.57 L 306.81 -30.57 L 305.4 -26.49 L 292.64 -26.49 L 292.64 -3.69 L 313.09 -3.69 L 313.09 0 Z M 323.93 0 L 319.6 0 L 336.15 -51.81 L 340.08 -51.81 L 356.96 0 L 352.51 0 L 346.59 -18.14 L 329.71 -18.14 L 323.93 0 Z M 338.1 -45.35 L 330.91 -22.19 L 345.47 -22.19 L 338.1 -45.35 Z M 369.21 0 L 365.09 0 L 365.09 -51.89 L 369.21 -51.89 L 369.21 -27.17 L 385.79 -51.89 L 390.6 -51.89 L 375.46 -29.45 L 394.46 0 L 389.51 0 L 372.78 -25.55 L 369.21 -19.91 L 369.21 0 Z" stroke-linecap="round" />
</g>
</g>
</g>
<g transform="matrix(1.9211538461538462 0 0 1.9211538461538462 819.1220057842545 580.0198273726459)" id="tagline-60a04db6-f3a0-4f90-94ef-49cc3b07edc2-logo"  >
<g style=""  paint-order="stroke"   >
		<g transform="matrix(1 0 0 1 0 0)" id="tagline-60a04db6-f3a0-4f90-94ef-49cc3b07edc2-logo-path-0"  >
<path style="stroke: rgb(255,255,255); stroke-width: 0; stroke-dasharray: none; stroke-linecap: butt; stroke-dashoffset: 0; stroke-linejoin: miter; stroke-miterlimit: 4; fill: rgb(0,0,0); fill-rule: nonzero; opacity: 1;"  paint-order="stroke"  transform=" translate(-179.975, 5.6850000000000005)" d="M 2.41 0 L 1.41 0 L 1.41 -12.6 L 5.84 -12.6 Q 7.55 -12.6 8.38 -11.56 Q 9.22 -10.51 9.22 -8.75 L 9.22 -8.75 Q 9.22 -7.9 9.15 -7.31 Q 9.09 -6.71 8.71 -5.93 Q 8.33 -5.15 7.63 -4.77 L 7.63 -4.77 L 9.24 0 L 8.21 0 L 6.68 -4.46 Q 6.35 -4.41 5.96 -4.41 L 5.96 -4.41 L 2.41 -4.41 L 2.41 0 Z M 2.41 -11.65 L 2.41 -5.4 L 5.98 -5.4 Q 6.63 -5.4 7.08 -5.66 Q 7.52 -5.92 7.74 -6.25 Q 7.95 -6.57 8.07 -7.13 L 8.07 -7.13 Q 8.21 -7.76 8.21 -8.75 L 8.21 -8.75 Q 8.21 -10.2 7.59 -10.92 Q 6.97 -11.65 5.91 -11.65 L 5.91 -11.65 L 2.41 -11.65 Z M 14.65 0 L 13.59 0 L 17.62 -12.6 L 18.58 -12.6 L 22.68 0 L 21.6 0 L 20.16 -4.41 L 16.05 -4.41 L 14.65 0 Z M 18.09 -11.03 L 16.34 -5.4 L 19.89 -5.4 L 18.09 -11.03 Z M 31.23 0 L 27.49 0 L 27.49 -12.62 L 30.87 -12.62 Q 32.9 -12.62 33.97 -11.5 Q 35.04 -10.39 35.04 -8.53 L 35.04 -8.53 L 35.04 -3.6 Q 35.04 0 31.23 0 L 31.23 0 Z M 28.49 -11.7 L 28.49 -0.9 L 30.94 -0.9 Q 34.03 -0.9 34.03 -3.42 L 34.03 -3.42 L 34.03 -8.71 Q 34.03 -10.22 33.13 -10.96 Q 32.23 -11.7 31.04 -11.7 L 31.04 -11.7 L 28.49 -11.7 Z M 42.05 -11.68 L 40.85 -11.72 L 40.85 -12.6 L 43.06 -12.6 L 43.06 0 L 42.05 0 L 42.05 -11.68 Z M 48.91 0 L 47.85 0 L 51.88 -12.6 L 52.83 -12.6 L 56.94 0 L 55.86 0 L 54.42 -4.41 L 50.31 -4.41 L 48.91 0 Z M 52.35 -11.03 L 50.6 -5.4 L 54.14 -5.4 L 52.35 -11.03 Z M 62.74 0 L 61.74 0 L 61.74 -12.6 L 62.74 -12.6 L 69.59 -1.85 L 69.59 -12.6 L 70.59 -12.6 L 70.59 0 L 69.59 0 L 62.74 -10.75 L 62.74 0 Z M 78.32 -11.7 L 75.26 -11.7 L 75.26 -12.6 L 82.49 -12.6 L 82.49 -11.7 L 79.33 -11.7 L 79.33 0 L 78.32 0 L 78.32 -11.7 Z M 94.6 -3.21 L 94.6 -3.21 L 95.63 -3.21 Q 95.72 -2.25 96.59 -1.51 Q 97.46 -0.77 98.83 -0.77 Q 100.2 -0.77 101.14 -1.39 Q 102.07 -2.01 102.07 -3.37 L 102.07 -3.37 Q 102.07 -4.19 101.54 -4.78 Q 101.01 -5.36 100.22 -5.67 Q 99.43 -5.98 98.5 -6.33 Q 97.57 -6.68 96.78 -7.02 Q 95.98 -7.37 95.46 -8.05 Q 94.93 -8.73 94.93 -9.69 L 94.93 -9.69 Q 94.93 -10.94 95.97 -11.86 Q 97.01 -12.78 98.97 -12.78 L 98.97 -12.78 Q 100.47 -12.78 101.6 -12.24 L 101.6 -12.24 Q 101.6 -12.21 101.3 -11.29 L 101.3 -11.29 Q 100.27 -11.8 98.95 -11.8 Q 97.63 -11.8 96.8 -11.23 Q 95.97 -10.65 95.97 -9.63 L 95.97 -9.63 Q 95.97 -8.48 97.39 -7.83 L 97.39 -7.83 Q 98.02 -7.54 98.79 -7.29 Q 99.55 -7.04 100.32 -6.73 Q 101.1 -6.42 101.73 -6.04 Q 102.36 -5.65 102.76 -4.99 Q 103.15 -4.32 103.15 -3.45 L 103.15 -3.45 Q 103.15 -1.8 102.1 -0.8 Q 101.05 0.2 98.97 0.2 Q 96.89 0.2 95.76 -0.83 Q 94.64 -1.87 94.6 -3.21 Z M 109.66 0 L 108.65 0 L 108.65 -12.6 L 113.08 -12.6 Q 114.8 -12.6 115.63 -11.56 Q 116.47 -10.51 116.47 -8.75 L 116.47 -8.75 Q 116.47 -8.11 116.44 -7.67 Q 116.41 -7.23 116.23 -6.56 Q 116.04 -5.89 115.72 -5.46 Q 115.4 -5.04 114.75 -4.72 Q 114.1 -4.41 113.21 -4.41 L 113.21 -4.41 L 109.66 -4.41 L 109.66 0 Z M 109.66 -11.65 L 109.66 -5.4 L 113.22 -5.4 Q 113.87 -5.4 114.32 -5.66 Q 114.77 -5.92 114.99 -6.25 Q 115.2 -6.57 115.32 -7.13 L 115.32 -7.13 Q 115.46 -7.76 115.46 -8.75 L 115.46 -8.75 Q 115.46 -10.2 114.84 -10.92 Q 114.22 -11.65 113.15 -11.65 L 113.15 -11.65 L 109.66 -11.65 Z M 122.67 -11.68 L 121.46 -11.72 L 121.46 -12.6 L 123.68 -12.6 L 123.68 0 L 122.67 0 L 122.67 -11.68 Z M 130.65 0 L 129.65 0 L 129.65 -12.6 L 134.08 -12.6 Q 135.8 -12.6 136.63 -11.56 Q 137.47 -10.51 137.47 -8.75 L 137.47 -8.75 Q 137.47 -7.9 137.4 -7.31 Q 137.33 -6.71 136.96 -5.93 Q 136.58 -5.15 135.87 -4.77 L 135.87 -4.77 L 137.48 0 L 136.45 0 L 134.93 -4.46 Q 134.6 -4.41 134.2 -4.41 L 134.2 -4.41 L 130.65 -4.41 L 130.65 0 Z M 130.65 -11.65 L 130.65 -5.4 L 134.22 -5.4 Q 134.87 -5.4 135.32 -5.66 Q 135.77 -5.92 135.98 -6.25 Q 136.2 -6.57 136.31 -7.13 L 136.31 -7.13 Q 136.45 -7.76 136.45 -8.75 L 136.45 -8.75 Q 136.45 -10.2 135.84 -10.92 Q 135.22 -11.65 134.15 -11.65 L 134.15 -11.65 L 130.65 -11.65 Z M 144.01 -11.68 L 142.81 -11.72 L 142.81 -12.6 L 145.02 -12.6 L 145.02 0 L 144.01 0 L 144.01 -11.68 Z M 152.65 -11.7 L 149.59 -11.7 L 149.59 -12.6 L 156.82 -12.6 L 156.82 -11.7 L 153.66 -11.7 L 153.66 0 L 152.65 0 L 152.65 -11.7 Z M 158.76 1.51 L 158.05 1.01 Q 158.86 0.54 159.08 0.18 L 159.08 0.18 L 159.18 0.05 L 159 0 Q 158.67 -0.24 158.68 -0.56 Q 158.69 -0.88 158.86 -1.03 Q 159.03 -1.19 159.16 -1.19 Q 159.29 -1.19 159.41 -1.18 Q 159.54 -1.17 159.73 -0.96 Q 159.92 -0.76 159.92 -0.48 L 159.92 -0.48 Q 159.91 0.55 158.76 1.51 L 158.76 1.51 Z M 180.05 0 L 173.55 0 L 173.55 -12.6 L 174.55 -12.6 L 174.55 -0.9 L 180.05 -0.9 L 180.05 0 Z M 185.68 -11.68 L 184.47 -11.72 L 184.47 -12.6 L 186.69 -12.6 L 186.69 0 L 185.68 0 L 185.68 -11.68 Z M 193.66 0 L 192.66 0 L 192.66 -12.6 L 193.66 -12.6 L 197.47 -1.55 L 201.3 -12.6 L 202.3 -12.6 L 202.3 0 L 201.3 0 L 201.3 -9.63 L 198.02 0 L 196.92 0 L 193.66 -9.63 L 193.66 0 Z M 209.36 -11.68 L 208.15 -11.72 L 208.15 -12.6 L 210.37 -12.6 L 210.37 0 L 209.36 0 L 209.36 -11.68 Z M 217.99 -11.7 L 214.94 -11.7 L 214.94 -12.6 L 222.17 -12.6 L 222.17 -11.7 L 219 -11.7 L 219 0 L 217.99 0 L 217.99 -11.7 Z M 233.29 0 L 226.8 0 L 226.8 -12.6 L 227.8 -12.6 L 227.8 -0.9 L 233.29 -0.9 L 233.29 0 Z M 243.91 0 L 237.94 0 L 237.94 -12.6 L 243.95 -12.6 L 243.95 -11.66 L 238.94 -11.66 L 238.94 -7.44 L 242.38 -7.44 L 242.04 -6.44 L 238.94 -6.44 L 238.94 -0.9 L 243.91 -0.9 L 243.91 0 Z M 248.79 -3.21 L 248.79 -3.21 L 249.82 -3.21 Q 249.9 -2.25 250.77 -1.51 Q 251.65 -0.77 253.02 -0.77 Q 254.39 -0.77 255.32 -1.39 Q 256.26 -2.01 256.26 -3.37 L 256.26 -3.37 Q 256.26 -4.19 255.73 -4.78 Q 255.2 -5.36 254.4 -5.67 Q 253.61 -5.98 252.69 -6.33 Q 251.76 -6.68 250.96 -7.02 Q 250.17 -7.37 249.64 -8.05 Q 249.11 -8.73 249.11 -9.69 L 249.11 -9.69 Q 249.11 -10.94 250.16 -11.86 Q 251.2 -12.78 253.16 -12.78 L 253.16 -12.78 Q 254.65 -12.78 255.78 -12.24 L 255.78 -12.24 Q 255.78 -12.21 255.49 -11.29 L 255.49 -11.29 Q 254.46 -11.8 253.13 -11.8 Q 251.81 -11.8 250.98 -11.23 Q 250.15 -10.65 250.15 -9.63 L 250.15 -9.63 Q 250.15 -8.48 251.57 -7.83 L 251.57 -7.83 Q 252.21 -7.54 252.97 -7.29 Q 253.74 -7.04 254.51 -6.73 Q 255.28 -6.42 255.91 -6.04 Q 256.54 -5.65 256.94 -4.99 Q 257.34 -4.32 257.34 -3.45 L 257.34 -3.45 Q 257.34 -1.8 256.29 -0.8 Q 255.23 0.2 253.15 0.2 Q 251.07 0.2 249.95 -0.83 Q 248.82 -1.87 248.79 -3.21 Z M 262.1 -3.21 L 262.1 -3.21 L 263.13 -3.21 Q 263.22 -2.25 264.09 -1.51 Q 264.96 -0.77 266.33 -0.77 Q 267.7 -0.77 268.64 -1.39 Q 269.57 -2.01 269.57 -3.37 L 269.57 -3.37 Q 269.57 -4.19 269.04 -4.78 Q 268.51 -5.36 267.72 -5.67 Q 266.93 -5.98 266 -6.33 Q 265.07 -6.68 264.28 -7.02 Q 263.48 -7.37 262.95 -8.05 Q 262.43 -8.73 262.43 -9.69 L 262.43 -9.69 Q 262.43 -10.94 263.47 -11.86 Q 264.51 -12.78 266.47 -12.78 L 266.47 -12.78 Q 267.96 -12.78 269.1 -12.24 L 269.1 -12.24 Q 269.1 -12.21 268.8 -11.29 L 268.8 -11.29 Q 267.77 -11.8 266.45 -11.8 Q 265.12 -11.8 264.29 -11.23 Q 263.46 -10.65 263.46 -9.63 L 263.46 -9.63 Q 263.46 -8.48 264.89 -7.83 L 264.89 -7.83 Q 265.52 -7.54 266.28 -7.29 Q 267.05 -7.04 267.82 -6.73 Q 268.6 -6.42 269.22 -6.04 Q 269.85 -5.65 270.25 -4.99 Q 270.65 -4.32 270.65 -3.45 L 270.65 -3.45 Q 270.65 -1.8 269.6 -0.8 Q 268.54 0.2 266.46 0.2 Q 264.39 0.2 263.26 -0.83 Q 262.14 -1.87 262.1 -3.21 Z M 284.14 -3.4 L 284.14 -3.4 L 284.14 -9.05 Q 284.14 -11.36 285.7 -12.31 L 285.7 -12.31 Q 286.51 -12.76 287.63 -12.76 L 287.63 -12.76 Q 289.01 -12.76 290.18 -12.16 L 290.18 -12.16 L 289.89 -11.49 Q 288.86 -11.87 287.95 -11.87 L 287.95 -11.87 Q 285.15 -11.87 285.15 -9.22 L 285.15 -9.22 L 285.15 -3.37 Q 285.15 -2.16 285.93 -1.48 Q 286.71 -0.79 287.92 -0.79 Q 289.14 -0.79 289.86 -1.49 Q 290.58 -2.2 290.58 -3.35 L 290.58 -3.35 L 290.58 -4.41 L 289.39 -4.41 L 289.05 -5.4 L 291.54 -5.4 L 291.54 0 L 290.8 0 L 290.54 -0.74 Q 289.61 0.18 287.98 0.18 Q 286.35 0.18 285.24 -0.72 Q 284.14 -1.62 284.14 -3.4 Z M 298.26 0 L 297.25 0 L 297.25 -12.6 L 301.68 -12.6 Q 303.4 -12.6 304.23 -11.56 Q 305.07 -10.51 305.07 -8.75 L 305.07 -8.75 Q 305.07 -7.9 305 -7.31 Q 304.94 -6.71 304.56 -5.93 Q 304.18 -5.15 303.48 -4.77 L 303.48 -4.77 L 305.09 0 L 304.06 0 L 302.53 -4.46 Q 302.2 -4.41 301.81 -4.41 L 301.81 -4.41 L 298.26 -4.41 L 298.26 0 Z M 298.26 -11.65 L 298.26 -5.4 L 301.83 -5.4 Q 302.48 -5.4 302.92 -5.66 Q 303.37 -5.92 303.59 -6.25 Q 303.8 -6.57 303.92 -7.13 L 303.92 -7.13 Q 304.06 -7.76 304.06 -8.75 L 304.06 -8.75 Q 304.06 -10.2 303.44 -10.92 Q 302.82 -11.65 301.75 -11.65 L 301.75 -11.65 L 298.26 -11.65 Z M 309.71 -3.33 L 309.71 -3.33 L 309.71 -9.12 Q 309.71 -10.98 310.72 -11.93 Q 311.74 -12.88 313.52 -12.88 Q 315.3 -12.88 316.28 -11.88 Q 317.26 -10.87 317.26 -9.11 L 317.26 -9.11 L 317.26 -3.33 Q 317.26 -1.51 316.16 -0.65 Q 315.05 0.2 313.5 0.2 Q 311.96 0.2 310.83 -0.65 Q 309.71 -1.51 309.71 -3.33 Z M 310.72 -9.29 L 310.72 -3.35 Q 310.72 -2.07 311.5 -1.42 Q 312.28 -0.76 313.49 -0.76 Q 314.71 -0.76 315.49 -1.39 Q 316.28 -2.03 316.28 -3.37 L 316.28 -3.37 L 316.28 -9.29 Q 316.28 -10.61 315.51 -11.27 Q 314.74 -11.94 313.48 -11.94 Q 312.23 -11.94 311.47 -11.27 Q 310.72 -10.6 310.72 -9.29 L 310.72 -9.29 Z M 325.58 0 L 322.61 -12.6 L 323.69 -12.6 L 326.26 -1.24 L 328.19 -12.6 L 329.59 -12.6 L 331.52 -1.24 L 334.06 -12.6 L 335.14 -12.6 L 332.2 0 L 330.67 0 L 328.89 -10.78 L 327.11 0 L 325.58 0 Z M 342.01 -11.7 L 338.95 -11.7 L 338.95 -12.6 L 346.18 -12.6 L 346.18 -11.7 L 343.02 -11.7 L 343.02 0 L 342.01 0 L 342.01 -11.7 Z M 351.81 0 L 350.81 0 L 350.81 -12.6 L 351.81 -12.6 L 351.81 -7.44 L 357.54 -7.44 L 357.54 -12.6 L 358.54 -12.6 L 358.54 0 L 357.54 0 L 357.54 -6.44 L 351.81 -6.44 L 351.81 0 Z" stroke-linecap="round" />
</g>
</g>
</g>
</svg>